<svg width="12" height="12" viewBox="0 0 12 12" fill="none" xmlns="http://www.w3.org/2000/svg">
<path d="M11.9956 1.24981C11.922 0.535303 11.3297 0.000387059 10.61 0C7.53779 0 4.46592 0 1.39366 0.000774119C1.30966 0.000774119 1.2241 0.00696707 1.1428 0.0228365C0.462232 0.152888 0 0.715673 0 1.40812C0 2.93933 0 4.47053 0 6.00174C0 7.52985 0 9.05796 0.000774258 10.5861C0.000774258 10.6639 0.00658119 10.7421 0.0162594 10.8199C0.105299 11.4844 0.695671 11.9996 1.36734 12C4.45624 12 7.54553 12 10.6344 11.9996C10.6875 11.9996 10.7397 11.9965 10.7928 11.9907C11.4714 11.911 11.9991 11.3184 11.9991 10.6352C12.0002 7.54611 12.0002 4.45738 11.9995 1.36864C12.0002 1.32839 12.001 1.28929 11.9956 1.24981ZM6.00011 3.69332C7.27532 3.69293 8.3074 4.72328 8.30895 5.99942C8.3105 7.27478 7.27996 8.30707 6.00398 8.30784C4.72568 8.30823 3.69205 7.27517 3.6936 5.99787C3.69515 4.72599 4.72801 3.69332 6.00011 3.69332ZM10.6189 5.14053C10.6189 6.79754 10.6189 8.45492 10.6189 10.1131C10.6189 10.4251 10.4293 10.6166 10.1168 10.6166C7.55289 10.6166 4.98893 10.6166 2.42459 10.6166C2.23993 10.6166 2.05643 10.617 1.87138 10.6166C1.5822 10.6163 1.38592 10.4196 1.38592 10.1309C1.38553 8.46576 1.38592 6.80063 1.38592 5.13512C1.38592 5.11847 1.38592 5.10144 1.38592 5.0817C1.73473 5.0817 2.07927 5.0817 2.4273 5.0817C2.19425 6.02187 2.3011 6.92139 2.76139 7.77215C3.09781 8.39299 3.58017 8.87566 4.19532 9.22285C5.41013 9.90833 6.92148 9.84369 8.07822 9.05332C8.72008 8.61439 9.18154 8.03071 9.45679 7.30342C9.73049 6.57769 9.7661 5.83685 9.57486 5.08015C9.92367 5.08015 10.2674 5.08015 10.6182 5.08015C10.6189 5.10067 10.6189 5.12041 10.6189 5.14053ZM10.6189 3.22072C10.6182 3.4936 10.4173 3.69255 10.1432 3.69293C10.1397 3.69293 10.1358 3.69293 10.1339 3.69293C9.91167 3.69293 9.6879 3.69293 9.46414 3.69293C9.23651 3.69293 9.00811 3.69332 8.7797 3.69255C8.51684 3.69255 8.31244 3.49631 8.31089 3.23349C8.30779 2.77096 8.30779 2.30842 8.31089 1.84666C8.31244 1.58075 8.51606 1.38606 8.78357 1.38567C9.23884 1.38529 9.69294 1.38529 10.1474 1.38567C10.4169 1.38606 10.6186 1.58617 10.6193 1.85711C10.6197 2.31229 10.6197 2.76631 10.6189 3.22072Z" fill="#828282"/>
</svg>
