<svg width="30" height="20" viewBox="0 0 30 20" fill="none" xmlns="http://www.w3.org/2000/svg">
<g filter="url(#filter0_d)">
<path d="M25.8039 12.7032C25.7448 12.6086 25.379 11.8488 23.6189 10.2871C21.7762 8.65178 22.0238 8.91732 24.2432 6.0897C25.5949 4.36763 26.1353 3.31598 25.9662 2.86641C25.8053 2.43786 24.8111 2.55091 24.8111 2.55091L21.5053 2.56932C21.5053 2.56932 21.2606 2.53777 21.0777 2.64162C20.9003 2.74415 20.7862 2.98077 20.7862 2.98077C20.7862 2.98077 20.2623 4.31373 19.5637 5.44688C18.091 7.83806 17.501 7.96426 17.2604 7.81572C16.7007 7.46999 16.841 6.42491 16.841 5.6835C16.841 3.36594 17.2082 2.39974 16.1246 2.14997C15.7643 2.06715 15.5003 2.01194 14.5803 2.00274C13.4005 1.99091 12.4008 2.00668 11.8356 2.27091C11.4589 2.44706 11.1687 2.84011 11.3461 2.86246C11.5647 2.89007 12.0598 2.98997 12.3224 3.33176C12.6621 3.77214 12.6497 4.76331 12.6497 4.76331C12.6497 4.76331 12.845 7.49102 12.1945 7.83018C11.7476 8.06285 11.1357 7.5883 9.82248 5.41796C9.15006 4.30716 8.64127 3.07805 8.64127 3.07805C8.64127 3.07805 8.54364 2.84932 8.369 2.72706C8.15724 2.57852 7.86022 2.53119 7.86022 2.53119L4.71673 2.5496C4.71673 2.5496 4.24507 2.56274 4.07181 2.75861C3.9178 2.93345 4.05944 3.29364 4.05944 3.29364C4.05944 3.29364 6.52087 8.79769 9.30682 11.5727C11.8631 14.1164 14.7646 13.9494 14.7646 13.9494H16.0792C16.0792 13.9494 16.4766 13.9074 16.6787 13.6984C16.8658 13.5064 16.8589 13.1463 16.8589 13.1463C16.8589 13.1463 16.8327 11.4597 17.6523 11.2112C18.4595 10.9667 19.4963 12.8413 20.595 13.563C21.4256 14.1085 22.0568 13.9889 22.0568 13.9889L24.9953 13.9494C24.9953 13.9494 26.5327 13.8587 25.8039 12.7032Z" fill="url(#paint0_linear)"/>
</g>
<defs>
<filter id="filter0_d" x="0" y="0" width="30" height="20" filterUnits="userSpaceOnUse" color-interpolation-filters="sRGB">
<feFlood flood-opacity="0" result="BackgroundImageFix"/>
<feColorMatrix in="SourceAlpha" type="matrix" values="0 0 0 0 0 0 0 0 0 0 0 0 0 0 0 0 0 0 127 0"/>
<feOffset dy="2"/>
<feGaussianBlur stdDeviation="2"/>
<feColorMatrix type="matrix" values="0 0 0 0 0 0 0 0 0 0 0 0 0 0 0 0 0 0 0.15 0"/>
<feBlend mode="normal" in2="BackgroundImageFix" result="effect1_dropShadow"/>
<feBlend mode="normal" in="SourceGraphic" in2="effect1_dropShadow" result="shape"/>
</filter>
<linearGradient id="paint0_linear" x1="26" y1="2" x2="4" y2="14" gradientUnits="userSpaceOnUse">
<stop stop-color="#282696"/>
<stop offset="1" stop-color="#09ABE4"/>
</linearGradient>
</defs>
</svg>
