<svg width="216" height="54" viewBox="0 0 216 54" fill="none" xmlns="http://www.w3.org/2000/svg">
<path fill-rule="evenodd" clip-rule="evenodd" d="M153.272 8.53998V22.081H163.763V8.53998C163.722 4.76872 160.366 3.34767 158.511 3.30668C156.533 3.30668 153.272 4.94636 153.272 8.53998ZM158.511 0C163.218 0 167.037 3.90789 167.037 8.56731V22.081L170.353 25.3603H146.642L149.984 22.081L149.998 8.49899C149.998 3.75759 153.873 0 158.511 0Z" fill="#09ABE4"/>
<path fill-rule="evenodd" clip-rule="evenodd" d="M93.3003 25.3604L96.438 3.48434C96.7109 1.48941 97.584 0.478271 99.0301 0.478271C100.299 0.478271 101.172 1.29811 101.649 2.93779L107.147 20.455L112.591 2.93779C113.068 1.29811 113.941 0.478271 115.224 0.478271C116.67 0.478271 117.529 1.48941 117.802 3.48434L120.94 25.3604H117.802L115.019 5.12402L109.385 23.1741C108.853 24.8411 108.102 25.6746 107.147 25.6746C106.602 25.6746 106.151 25.4833 105.81 25.0871C105.469 24.7045 105.156 24.0623 104.855 23.1741L99.2347 5.12402L96.479 25.3604H93.3003Z" fill="#09ABE4"/>
<path fill-rule="evenodd" clip-rule="evenodd" d="M164.459 53.4124V32.0283H157.583V28.6533H174.65V32.0283H167.801V53.4124H164.459Z" fill="#282696"/>
<path fill-rule="evenodd" clip-rule="evenodd" d="M200.175 35.4308C204.363 31.8508 207.419 26.8635 208.551 21.2886H216C213.476 27.8336 209.001 33.4222 203.299 37.3301C209.001 41.2516 213.476 46.8402 216 53.3852H208.551C207.419 47.8103 204.363 42.8093 200.175 39.243C199.997 39.0791 199.97 39.0244 199.847 38.9561V35.7041C199.847 35.6767 200.093 35.5128 200.175 35.4308Z" fill="#282696"/>
<path fill-rule="evenodd" clip-rule="evenodd" d="M141.267 36.4965V50.0375V53.3169H137.966L137.979 50.0375L137.993 36.4555C138.006 31.7141 141.867 27.9565 146.519 27.9565C151.212 27.9565 155.032 31.8644 155.032 36.5239V50.0375L155.059 53.3169H151.744V50.0375H151.758V36.4965C151.731 32.7253 148.375 31.2906 146.519 31.2632C144.541 31.2632 141.267 32.9029 141.267 36.4965Z" fill="#282696"/>
<path fill-rule="evenodd" clip-rule="evenodd" d="M182.085 45.4326C182.085 39.8167 182.085 34.2145 182.085 28.5986H178.811V45.4736C178.811 50.215 182.672 53.959 187.324 53.959C189.288 53.959 191.103 53.2758 192.549 52.1416V53.3031H195.864V28.585H192.549V45.9519C192.221 49.3269 189.097 50.6249 187.324 50.6659C185.346 50.6659 182.085 49.0263 182.085 45.4326Z" fill="#282696"/>
<path fill-rule="evenodd" clip-rule="evenodd" d="M172.685 12.9808C172.685 15.6316 173.654 17.9408 175.591 19.9357C177.542 21.9307 179.875 22.9281 182.617 22.9281C185.359 22.9281 187.692 21.9307 189.629 19.9357C191.553 17.9408 192.508 15.6316 192.508 12.9808C192.508 10.3573 191.553 8.04808 189.629 6.05314C187.692 4.0582 185.359 3.06073 182.617 3.06073C179.902 3.06073 177.569 4.04453 175.618 6.02581C173.668 7.99342 172.685 10.3026 172.685 12.9808ZM192.549 0.573887H195.864V25.292H192.549V21.3568C192.317 21.6301 192.071 21.9033 191.798 22.1766C189.261 24.7728 186.205 26.0572 182.617 26.0572C179.111 26.0572 176.055 24.7864 173.463 22.2176C170.885 19.6488 169.589 16.5881 169.589 13.0081C169.589 9.51012 170.885 6.47672 173.463 3.88057C176.055 1.29808 179.111 0 182.617 0C186.205 0 189.261 1.28441 191.798 3.85324C192.071 4.11285 192.317 4.38613 192.549 4.67308V0.573887Z" fill="#09ABE4"/>
<path fill-rule="evenodd" clip-rule="evenodd" d="M111.404 40.9099C111.404 43.5607 112.372 45.8836 114.31 47.8785C116.247 49.8598 118.58 50.8573 121.335 50.8573C124.078 50.8573 126.41 49.8598 128.334 47.8785C130.258 45.8836 131.226 43.5607 131.226 40.9099C131.226 38.2864 130.258 35.9772 128.334 33.996C126.41 32.001 124.078 31.0035 121.335 31.0035C118.607 31.0035 116.274 31.9873 114.323 33.955C112.372 35.9226 111.404 38.2454 111.404 40.9099ZM124.76 12.9808C124.76 15.6316 125.728 17.9408 127.666 19.9357C129.603 21.9307 131.949 22.9281 134.691 22.9281C137.433 22.9281 139.766 21.9307 141.69 19.9357C143.613 17.9408 144.582 15.6316 144.582 12.9808C144.582 10.3573 143.613 8.04808 141.69 6.05314C139.766 4.0582 137.433 3.06073 134.691 3.06073C131.963 3.06073 129.63 4.04453 127.679 6.02581C125.728 7.99342 124.76 10.3026 124.76 12.9808ZM128.784 24.6361C128.648 24.6088 128.511 24.5951 128.361 24.5951C126.97 24.5951 125.824 25.7429 125.824 27.1366C125.824 27.9292 126.192 28.626 126.751 29.0906C128.116 29.7328 129.371 30.621 130.517 31.7824C133.054 34.3512 134.323 37.3983 134.323 40.9509C134.323 44.4762 133.054 47.5233 130.517 50.1194C127.979 52.7019 124.91 54 121.322 54C117.816 54 114.76 52.7156 112.181 50.1468C109.589 47.5779 108.293 44.5172 108.293 40.9509C108.293 37.4529 109.589 34.4059 112.181 31.8234C114.76 29.2272 117.816 27.9292 121.322 27.9292C121.868 27.9292 122.4 27.9701 122.918 28.0248C122.863 27.7379 122.836 27.4372 122.836 27.1366C122.836 25.0734 123.968 23.2697 125.646 22.3269C125.606 22.2859 125.578 22.2449 125.537 22.2176C122.945 19.6488 121.663 16.5881 121.663 13.0081C121.663 9.51012 122.945 6.47672 125.537 3.88057C128.129 1.29808 131.172 0 134.691 0C138.266 0 141.335 1.28441 143.873 3.85324C146.41 6.4084 147.679 9.46913 147.679 13.0081C147.679 16.5334 146.41 19.5941 143.873 22.1766C141.335 24.7728 138.266 26.0572 134.691 26.0572C132.55 26.0572 130.585 25.5926 128.784 24.6361Z" fill="#282696"/>
<path fill-rule="evenodd" clip-rule="evenodd" d="M53.219 1.06567C63.7782 1.06567 72.905 7.36476 77.0659 16.4103C70.3811 13.6365 63.1234 11.9832 55.5246 11.6826C54.7742 11.5733 53.9966 11.5186 53.219 11.5186C52.4687 11.5186 51.7456 11.5733 51.0362 11.6689C43.4238 11.9149 36.1524 13.5135 29.4403 16.2463C33.6422 7.29644 42.728 1.06567 53.219 1.06567Z" fill="#09ABE4"/>
<path fill-rule="evenodd" clip-rule="evenodd" d="M79.2759 23.8847C79.2896 23.8983 79.2896 23.8983 79.2896 23.912C91.3631 30.1974 100.954 40.664 106.111 53.3715H93.8597C91.7314 44.1347 86.4655 35.909 79.3714 30.1018C77.9936 43.3012 66.7932 53.6448 53.2735 53.6448C39.6721 53.6448 28.4307 43.1919 27.1484 29.8968C19.9179 35.7177 14.4064 44.0254 12.2509 53.3715H0C5.21139 40.5137 15.0612 29.9105 27.3257 23.6524C27.3257 23.6661 27.3257 23.6661 27.3257 23.6797C31.2411 21.6848 35.4293 20.1271 39.7949 19.0886C38.3215 21.4935 37.462 24.3356 37.462 27.3553C37.462 36.0866 44.5561 43.1919 53.2735 43.1919C61.9774 43.1919 69.0851 36.0866 69.0851 27.3553C69.0851 24.3629 68.2392 21.5618 66.7932 19.1706C71.1724 20.2637 75.3606 21.8487 79.2759 23.8847Z" fill="#282696"/>
</svg>
