<svg width="20" height="20" viewBox="0 0 20 20" fill="none" xmlns="http://www.w3.org/2000/svg">
<g filter="url(#filter0_d)">
<path d="M15.9956 3.24981C15.922 2.5353 15.3297 2.00039 14.61 2C11.5378 2 8.46592 2 5.39366 2.00077C5.30966 2.00077 5.2241 2.00697 5.1428 2.02284C4.46223 2.15289 4 2.71567 4 3.40812C4 4.93933 4 6.47053 4 8.00174C4 9.52985 4 11.058 4.00077 12.5861C4.00077 12.6639 4.00658 12.7421 4.01626 12.8199C4.1053 13.4844 4.69567 13.9996 5.36734 14C8.45624 14 11.5455 14 14.6344 13.9996C14.6875 13.9996 14.7397 13.9965 14.7928 13.9907C15.4714 13.911 15.9991 13.3184 15.9991 12.6352C16.0002 9.54611 16.0002 6.45738 15.9995 3.36864C16.0002 3.32839 16.001 3.28929 15.9956 3.24981ZM10.0001 5.69332C11.2753 5.69293 12.3074 6.72328 12.309 7.99942C12.3105 9.27478 11.28 10.3071 10.004 10.3078C8.72568 10.3082 7.69205 9.27517 7.6936 7.99787C7.69515 6.72599 8.72801 5.69332 10.0001 5.69332ZM14.6189 7.14053C14.6189 8.79754 14.6189 10.4549 14.6189 12.1131C14.6189 12.4251 14.4293 12.6166 14.1168 12.6166C11.5529 12.6166 8.98893 12.6166 6.42459 12.6166C6.23993 12.6166 6.05643 12.617 5.87138 12.6166C5.5822 12.6163 5.38592 12.4196 5.38592 12.1309C5.38553 10.4658 5.38592 8.80063 5.38592 7.13512C5.38592 7.11847 5.38592 7.10144 5.38592 7.0817C5.73473 7.0817 6.07927 7.0817 6.4273 7.0817C6.19425 8.02187 6.3011 8.92139 6.76139 9.77215C7.09781 10.393 7.58017 10.8757 8.19532 11.2228C9.41013 11.9083 10.9215 11.8437 12.0782 11.0533C12.7201 10.6144 13.1815 10.0307 13.4568 9.30342C13.7305 8.57769 13.7661 7.83685 13.5749 7.08015C13.9237 7.08015 14.2674 7.08015 14.6182 7.08015C14.6189 7.10067 14.6189 7.12041 14.6189 7.14053ZM14.6189 5.22072C14.6182 5.4936 14.4173 5.69255 14.1432 5.69293C14.1397 5.69293 14.1358 5.69293 14.1339 5.69293C13.9117 5.69293 13.6879 5.69293 13.4641 5.69293C13.2365 5.69293 13.0081 5.69332 12.7797 5.69255C12.5168 5.69255 12.3124 5.49631 12.3109 5.23349C12.3078 4.77096 12.3078 4.30842 12.3109 3.84666C12.3124 3.58075 12.5161 3.38606 12.7836 3.38567C13.2388 3.38529 13.6929 3.38529 14.1474 3.38567C14.4169 3.38606 14.6186 3.58617 14.6193 3.85711C14.6197 4.31229 14.6197 4.76631 14.6189 5.22072Z" fill="url(#paint0_linear)"/>
</g>
<defs>
<filter id="filter0_d" x="0" y="0" width="20" height="20" filterUnits="userSpaceOnUse" color-interpolation-filters="sRGB">
<feFlood flood-opacity="0" result="BackgroundImageFix"/>
<feColorMatrix in="SourceAlpha" type="matrix" values="0 0 0 0 0 0 0 0 0 0 0 0 0 0 0 0 0 0 127 0"/>
<feOffset dy="2"/>
<feGaussianBlur stdDeviation="2"/>
<feColorMatrix type="matrix" values="0 0 0 0 0 0 0 0 0 0 0 0 0 0 0 0 0 0 0.15 0"/>
<feBlend mode="normal" in2="BackgroundImageFix" result="effect1_dropShadow"/>
<feBlend mode="normal" in="SourceGraphic" in2="effect1_dropShadow" result="shape"/>
</filter>
<linearGradient id="paint0_linear" x1="16" y1="2" x2="4" y2="14" gradientUnits="userSpaceOnUse">
<stop stop-color="#282696"/>
<stop offset="1" stop-color="#09ABE4"/>
</linearGradient>
</defs>
</svg>
