<svg width="10" height="8" viewBox="0 0 10 8" fill="none" xmlns="http://www.w3.org/2000/svg">
<path d="M10 6.78214V1.73157C10 1.57653 9.8721 1.45093 9.71434 1.45093H8.28566C8.12784 1.45093 8 1.57653 8 1.73157V6.78214C8 6.93724 8.12784 7.06278 8.28566 7.06278H9.71429C9.8721 7.06278 10 6.93724 10 6.78214Z" fill="#828282"/>
<path d="M4.26671 7.06269H5.73335C5.88063 7.06269 6 6.9241 6 6.75289V0.558028C6 0.386884 5.88063 0.248291 5.73335 0.248291H4.26671C4.11937 0.248291 4 0.386884 4 0.558028V6.75289C4 6.9241 4.11931 7.06269 4.26671 7.06269Z" fill="#828282"/>
<path d="M0.285706 2.65332C0.127841 2.65332 0 2.79424 0 2.96826V6.74763C0 6.92171 0.127841 7.06263 0.285706 7.06263H1.71429C1.87216 7.06263 2 6.92171 2 6.74763V2.96826C2 2.79424 1.87216 2.65332 1.71429 2.65332H0.285706Z" fill="#828282"/>
</svg>
