<svg width="16" height="12" viewBox="0 0 16 12" fill="none" xmlns="http://www.w3.org/2000/svg">
<path d="M14.5938 6.46143H9.90625C9.258 6.46143 8.71634 6.89767 8.55425 7.48613C8.39225 7.42186 8.18509 7.3845 8 7.3845C7.81491 7.3845 7.60775 7.42186 7.44575 7.48613C7.28366 6.89767 6.742 6.46143 6.09375 6.46143H1.40625C0.645719 6.46143 0 7.07161 0 7.84604V8.76912C0 10.5504 1.47216 11.9999 3.28125 11.9999H4.21875C6.02784 11.9999 7.5 10.5504 7.5 8.76912C7.5 8.51447 7.74137 8.30758 8 8.30758C8.25863 8.30758 8.5 8.51447 8.5 8.76912C8.5 10.5504 9.97216 11.9999 11.7812 11.9999H12.7188C14.5278 11.9999 16 10.5504 16 8.76912V7.84604C16 7.08253 15.3692 6.46143 14.5938 6.46143Z" fill="#828282"/>
<path d="M14.3424 1.10517C14.3413 1.10068 14.338 1.09757 14.3367 1.09317C14.3356 1.08917 14.3368 1.08523 14.3356 1.08129C14.1378 0.434492 13.5436 0 12.857 0C12.0056 0 11.3125 0.6824 11.3125 1.52074C11.3125 1.77585 11.5222 1.98228 11.7812 1.98228C12.0403 1.98228 12.25 1.77585 12.25 1.52074C12.25 1.19126 12.5224 0.923077 12.857 0.923077C13.1251 0.923077 13.3574 1.09237 13.4365 1.34428L14.4764 5.53846C14.8371 5.53846 15.1142 5.56308 15.4852 5.71403L14.3424 1.10517Z" fill="#828282"/>
<path d="M3.14301 0C2.45638 0 1.86219 0.434492 1.66444 1.08129C1.66329 1.08495 1.66444 1.08855 1.66341 1.09222C1.66226 1.09634 1.65907 1.0992 1.65804 1.10338L0.490601 5.73228C0.871132 5.57092 1.15048 5.53846 1.50569 5.53846L2.56338 1.34462C2.64229 1.09249 2.87479 0.923077 3.14304 0.923077C3.47763 0.923077 3.75001 1.19126 3.75001 1.52074C3.75001 1.77585 3.95966 1.98228 4.21876 1.98228C4.47785 1.98228 4.68751 1.77585 4.68751 1.52074C4.68751 0.6824 3.99444 0 3.14301 0Z" fill="#828282"/>
</svg>
