<svg width="10" height="27" viewBox="0 0 10 27" fill="none" xmlns="http://www.w3.org/2000/svg">
<path d="M9.84227 1.53905C10.14 1.07388 10.0042 0.45544 9.53905 0.157729C9.07388 -0.139983 8.45544 -0.0042274 8.15773 0.460946L9.84227 1.53905ZM1 13.5L0.157729 12.9609C-0.0525762 13.2895 -0.0525762 13.7105 0.157729 14.0391L1 13.5ZM8.15773 26.5391C8.45544 27.0042 9.07388 27.14 9.53905 26.8423C10.0042 26.5446 10.14 25.9261 9.84227 25.4609L8.15773 26.5391ZM8.15773 0.460946L0.157729 12.9609L1.84227 14.0391L9.84227 1.53905L8.15773 0.460946ZM0.157729 14.0391L8.15773 26.5391L9.84227 25.4609L1.84227 12.9609L0.157729 14.0391Z" fill="#BDBDBD"/>
</svg>
