<svg width="10" height="27" viewBox="0 0 10 27" fill="none" xmlns="http://www.w3.org/2000/svg">
<path d="M0.157728 25.4609C-0.139982 25.9261 -0.00422764 26.5446 0.460946 26.8423C0.92612 27.14 1.54456 27.0042 1.84227 26.5391L0.157728 25.4609ZM9 13.5L9.84227 14.0391C10.0526 13.7105 10.0526 13.2895 9.84227 12.9609L9 13.5ZM1.84227 0.460947C1.54456 -0.00422668 0.92612 -0.139982 0.460946 0.15773C-0.00422764 0.455441 -0.139982 1.07388 0.157728 1.53905L1.84227 0.460947ZM1.84227 26.5391L9.84227 14.0391L8.15773 12.9609L0.157728 25.4609L1.84227 26.5391ZM9.84227 12.9609L1.84227 0.460947L0.157728 1.53905L8.15773 14.0391L9.84227 12.9609Z" fill="#BDBDBD"/>
</svg>
